{"title":"Mirror.Mirror.TS.XviD.AC3-ANALOG","uid":7184022,"size":1482606020,"categoryP":"video","categoryS":"movies","magnet":"?xt=urn:btih:83477de2332d20ea46c9b596e69debcb8d7a9f85&amp;dn=Mirror.Mirror.TS.XviD.AC3-ANALOG&amp;tr=udp%3A%2F%2Ftracker.openbittorrent.com%3A80&amp;tr=udp%3A%2F%2Fopen.demonii.com%3A1337&amp;tr=udp%3A%2F%2Ftracker.coppersurfer.tk%3A6969&amp;tr=udp%3A%2F%2Fexodus.desync.com%3A6969","seeders":1,"leechers":0,"uploader":"maximersk","files":11,"time":1334363891,"description":"Mirror.Mirror.TS.XviD.AC3-ANALOG\n\n\n\n\n\n\n\nComplete name : Mirror.Mirror.TS.Xvid.Ac3.ANALOGm.m.ts.analog.avi\nFormat : AVI\nFormat/Info : Audio Video Interleave\nFile size : 1.37 GiB\nDuration : 1h 38mn\nOverall bit rate : 1 999 Kbps\nWriting application : VirtualDubMod 1.5.10.2 (build 2540/release)\nWriting library : VirtualDubMod build 2540/release\n\nVideo\nID : 0\nFormat : MPEG-4 Visual\nFormat profile : Advanced Simple@L5\nFormat settings, BVOP : 1\nFormat settings, QPel : Yes\nFormat settings, GMC : No warppoints\nFormat settings, Matrix : Custom\nMuxing mode : Packed bitstream\nCodec ID : XVID\nCodec ID/Hint : XviD\nDuration : 1h 38mn\nBit rate : 1 797 Kbps\nWidth : 688 pixels\nHeight : 288 pixels\nDisplay aspect ratio : 2.35:1\nFrame rate : 25.000 fps\nColor space : YUV\nChroma subsampling : 4:2:0\nBit depth : 8 bits\nScan type : Progressive\nCompression mode : Lossy\nBits/(Pixel*Frame) : 0.363\nStream size : 1.23 GiB (90%)\nWriting library : XviD 58\n\nAudio\nID : 1\nFormat : AC-3\nFormat/Info : Audio Coding 3\nMode extension : CM (complete main)\nCodec ID : 2000\nDuration : 1h 38mn\nBit rate mode : Constant\nBit rate : 192 Kbps\nChannel(s) : 2 channels\nChannel positions : Front: L R\nSampling rate : 48.0 KHz\nBit depth : 16 bits\nCompression mode : Lossy\nStream size : 135 MiB (10%)\nAlignment : Split accross interleaves\nInterleave, duration : 40 ms (1.00 video frame)\nInterleave, preload duration : 500 ms\nSample : Yes\n\nSource : Vobs/Mirror Mirror 2012 TS2DVD DD2 THANX \n\n\n","torrent":{"xt":"urn:btih:83477de2332d20ea46c9b596e69debcb8d7a9f85","amp;dn":"Mirror.Mirror.TS.XviD.AC3-ANALOG","amp;tr":["udp%3A%2F%2Ftracker.openbittorrent.com%3A80","udp%3A%2F%2Fopen.demonii.com%3A1337","udp%3A%2F%2Ftracker.coppersurfer.tk%3A6969","udp%3A%2F%2Fexodus.desync.com%3A6969"],"infoHash":"83477de2332d20ea46c9b596e69debcb8d7a9f85","infoHashBuffer":{"type":"Buffer","data":[131,71,125,226,51,45,32,234,70,201,181,150,230,157,235,203,141,122,159,133]},"announce":[],"urlList":[]}}